<?xml version="1.0" encoding="iso-8859-1"?>
<!-- Generator: Adobe Illustrator 19.0.0, SVG Export Plug-In . SVG Version: 6.00 Build 0)  -->
<svg version="1.1" id="Capa_1" xmlns="http://www.w3.org/2000/svg" xmlns:xlink="http://www.w3.org/1999/xlink" x="0px" y="0px"
	 viewBox="0 0 512.003 512.003" style="enable-background:new 0 0 512.003 512.003;" xml:space="preserve">
<path style="fill:#346FD1;" d="M256.002,502.003c88.43,0,171.98-20.133,246-55.895l-246-387.448l-246,387.448
	C84.022,481.869,167.572,502.003,256.002,502.003z"/>
<polygon style="fill:#6ABA3F;" points="422.263,320.519 366.896,275.337 311.355,320.531 256.04,275.337 256.04,275.337 
	200.548,320.519 145.181,275.337 89.741,320.508 130.877,256.044 172.6,218.068 214.268,256.054 256.03,218.068 256.03,218.068 
	297.659,256.064 339.459,218.068 381.127,256.054 "/>
<path style="fill:#BF4217;" d="M174.779,496.257c26.505,3.785,53.626,5.746,81.223,5.746s54.718-1.962,81.223-5.746l-81.223-172.679
	L174.779,496.257z"/>
<g>
	<path style="fill:#81CEFC;" d="M469.855,395.477c-50.458,20.559-104.76,34.063-161.579,39.235l28.949,61.545
		c58.426-8.343,113.857-25.547,164.777-50.148L469.855,395.477z"/>
	<path style="fill:#81CEFC;" d="M10.002,446.108c50.92,24.601,106.351,41.806,164.777,50.148l28.949-61.545
		c-56.819-5.172-111.121-18.675-161.579-39.235L10.002,446.108z"/>
</g>
<g>
	<polygon style="fill:#FFAA64;" points="279.731,176.33 256.002,138.333 256.002,138.333 232.196,176.32 	"/>
	<path style="fill:#FFAA64;" d="M186.927,363.411l-40.66,20.284l-40.66-20.284l40.66-20.284L186.927,363.411z"/>
	<path style="fill:#FFAA64;" d="M406.397,363.411l-40.66,20.284l-40.66-20.284l40.66-20.284L406.397,363.411z"/>
</g>
<path d="M510.444,440.748L267.81,58.602l26.914-43.323c2.915-4.691,1.475-10.856-3.217-13.771
	c-4.692-2.916-10.857-1.474-13.771,3.217l-21.734,34.984L234.269,4.728c-2.913-4.69-9.077-6.132-13.771-3.217
	c-4.69,2.914-6.132,9.08-3.217,13.771l26.912,43.321L1.559,440.748c-1.529,2.408-1.957,5.355-1.175,8.1
	c0.781,2.744,2.698,5.023,5.267,6.265c78.136,37.75,162.365,56.89,250.351,56.89s172.215-19.141,250.351-56.89
	c2.568-1.241,4.485-3.521,5.267-6.265C512.401,446.104,511.974,443.157,510.444,440.748z M265.051,319.322
	c-1.648-3.506-5.175-5.744-9.049-5.744c-3.874,0-7.4,2.238-9.049,5.744L197.682,424.07c-48.524-4.873-94.666-15.875-140.538-33.555
	l40.185-63.291l47.847-38.983l49.049,40.027c3.676,3,8.955,3.003,12.637,0.007l49.167-40.033l48.998,40.034
	c1.841,1.504,4.084,2.256,6.327,2.256c2.236,0,4.474-0.748,6.312-2.244l49.222-40.051l47.799,39.007l40.16,63.252
	c-45.848,17.685-91.986,28.691-140.526,33.573L265.051,319.322z M138.128,262.967l34.467-31.372l34.937,31.85
	c3.814,3.476,9.647,3.479,13.466,0.007l35.021-31.855l34.899,31.854c1.909,1.742,4.325,2.614,6.741,2.614
	c2.409,0,4.819-0.867,6.727-2.6l35.063-31.873l34.441,31.398l6.783,10.683l-7.454-6.083c-3.676-3-8.954-3.004-12.634-0.009
	l-49.218,40.048l-49-40.036c-3.677-3.004-8.96-3.008-12.641-0.01l-49.172,40.036l-49.051-40.029
	c-3.677-3.001-8.958-3.004-12.639-0.005l-7.601,6.193L138.128,262.967z M256.002,77.317l83.029,130.771
	c-2.265,0.096-4.504,0.95-6.299,2.581l-35.06,31.87l-34.901-31.856c-3.813-3.479-9.65-3.486-13.47-0.011l-35.025,31.859
	l-34.938-31.852c-1.811-1.65-4.076-2.508-6.364-2.593L256.002,77.317z M46.226,407.712c46.574,18.311,93.366,29.986,142.443,35.519
	l-19.799,42.093c-49.919-7.763-98.205-22.27-144.347-43.43L46.226,407.712z M189.64,488.156l66.362-141.084l66.362,141.084
	c-21.84,2.557-43.974,3.846-66.362,3.846S211.48,490.713,189.64,488.156z M343.134,485.323l-19.8-42.094
	c49.093-5.541,95.88-17.222,142.431-35.538l21.716,34.202C441.339,463.053,393.053,477.56,343.134,485.323z"/>
<path d="M232.194,186.32l47.535,0.01h0.002c3.634,0,6.982-1.972,8.745-5.15c1.763-3.179,1.662-7.064-0.264-10.147l-23.729-37.997
	c-1.825-2.923-5.027-4.7-8.474-4.703c-0.003,0-0.005,0-0.005,0c-3.446,0-6.647,1.772-8.477,4.69l-23.806,37.986
	c-1.932,3.082-2.037,6.969-0.276,10.151C225.207,184.344,228.557,186.319,232.194,186.32z M255.987,157.188l5.707,9.138
	l-11.433-0.002L255.987,157.188z"/>
<path d="M353.69,453.885l-0.093,0.093c-3.905,3.905-3.905,10.237,0,14.143c1.953,1.953,4.512,2.929,7.071,2.929
	s5.118-0.976,7.071-2.929l0.093-0.093c3.905-3.905,3.905-10.237,0-14.143C363.927,449.98,357.597,449.98,353.69,453.885z"/>
<path d="M400.584,440.931l-0.093,0.093c-3.905,3.905-3.905,10.237,0,14.143c1.953,1.953,4.512,2.929,7.071,2.929
	s5.118-0.976,7.071-2.929l0.093-0.093c3.905-3.905,3.905-10.237,0-14.143C410.82,437.026,404.49,437.026,400.584,440.931z"/>
<path d="M455.073,429.957c-3.906-3.905-10.236-3.905-14.143,0l-0.093,0.093c-3.905,3.905-3.905,10.237,0,14.143
	c1.953,1.953,4.512,2.929,7.071,2.929s5.118-0.976,7.071-2.929l0.093-0.093C458.978,440.195,458.978,433.863,455.073,429.957z"/>
<path d="M158.406,453.978l-0.093-0.093c-3.906-3.905-10.236-3.905-14.143,0c-3.905,3.905-3.905,10.237,0,14.143l0.093,0.093
	c1.953,1.953,4.512,2.929,7.071,2.929s5.118-0.976,7.071-2.929C162.311,464.215,162.311,457.883,158.406,453.978z"/>
<path d="M111.42,440.931c-3.906-3.905-10.236-3.905-14.143,0c-3.905,3.905-3.905,10.237,0,14.143l0.093,0.093
	c1.953,1.953,4.512,2.929,7.071,2.929s5.118-0.976,7.071-2.929c3.905-3.905,3.905-10.237,0-14.143L111.42,440.931z"/>
<path d="M71.073,429.957c-3.906-3.905-10.236-3.905-14.143,0c-3.905,3.905-3.905,10.237,0,14.143l0.093,0.093
	c1.953,1.953,4.512,2.929,7.071,2.929c2.56,0,5.118-0.976,7.071-2.929c3.905-3.905,3.905-10.237,0-14.143L71.073,429.957z"/>
<path d="M191.391,354.463l-40.66-20.284c-2.811-1.402-6.117-1.402-8.928,0l-40.66,20.284c-3.393,1.692-5.536,5.157-5.536,8.948
	s2.144,7.256,5.536,8.948l40.66,20.284c1.405,0.701,2.935,1.052,4.464,1.052s3.059-0.351,4.464-1.052l40.66-20.284
	c3.393-1.692,5.536-5.157,5.536-8.948S194.783,356.156,191.391,354.463z M146.267,372.52l-18.259-9.108l18.259-9.108l18.259,9.108
	L146.267,372.52z"/>
<path d="M410.861,354.463l-40.66-20.284c-2.811-1.402-6.117-1.402-8.928,0l-40.66,20.284c-3.393,1.692-5.536,5.157-5.536,8.948
	s2.144,7.256,5.536,8.948l40.66,20.284c1.405,0.701,2.935,1.052,4.464,1.052s3.059-0.351,4.464-1.052l40.66-20.284
	c3.393-1.692,5.536-5.157,5.536-8.948S414.254,356.156,410.861,354.463z M365.737,372.52l-18.259-9.108l18.259-9.108l18.259,9.108
	L365.737,372.52z"/>
<g>
</g>
<g>
</g>
<g>
</g>
<g>
</g>
<g>
</g>
<g>
</g>
<g>
</g>
<g>
</g>
<g>
</g>
<g>
</g>
<g>
</g>
<g>
</g>
<g>
</g>
<g>
</g>
<g>
</g>
</svg>
