<?xml version="1.0" encoding="UTF-8" standalone="no"?>
<svg
   width="200mm"
   height="200mm"
   viewBox="0 0 200 200"
   version="1.1"
   id="svg202"
   inkscape:version="1.1.1 (c3084ef, 2021-09-22)"
   sodipodi:docname="logo1.svg"
   xmlns:inkscape="http://www.inkscape.org/namespaces/inkscape"
   xmlns:sodipodi="http://sodipodi.sourceforge.net/DTD/sodipodi-0.dtd"
   xmlns="http://www.w3.org/2000/svg"
   xmlns:svg="http://www.w3.org/2000/svg">
  <sodipodi:namedview
     id="namedview204"
     pagecolor="transparent"
     bordercolor="#7256d5"
     borderopacity="1.0"
     inkscape:pageshadow="2"
     inkscape:pageopacity="0.0"
     inkscape:pagecheckerboard="0"
     inkscape:document-units="mm"
     showgrid="true"
     width="200mm"
     inkscape:showpageshadow="false"
     inkscape:zoom="0.48016975"
     inkscape:cx="-13.536879"
     inkscape:cy="560.21854"
     inkscape:window-width="1340"
     inkscape:window-height="762"
     inkscape:window-x="233"
     inkscape:window-y="25"
     inkscape:window-maximized="0"
     inkscape:current-layer="layer1">
    <inkscape:grid
       type="xygrid"
       id="grid206" />
  </sodipodi:namedview>
  <defs
     id="defs199" />
  <g
     inkscape:label="Layer1"
     inkscape:groupmode="layer"
     id="layer1">
    <path
       d="M 181.40569,155.39424 H 105.28033 L 80.282877,112.08955 h 23.877283 l 12.78614,22.13462 c 0.0145,0.0145 0.0256,0.0182 0.0398,0.0365 0.0256,0.0365 0.0365,0.0707 0.0748,0.10529 0.0412,0.0555 0.0915,0.09 0.14145,0.13637 0.0398,0.0182 0.0656,0.0555 0.09,0.0748 h 0.0145 c 0.0145,0.0102 0.0256,0.0102 0.0365,0.0145 0.13129,0.0707 0.27123,0.1159 0.44239,0.1159 h 26.11764 c 0.15676,0 0.29712,-0.0449 0.42311,-0.1159 0.0398,-0.0145 0.0799,-0.0398 0.10529,-0.0656 0.10021,-0.0707 0.1801,-0.15055 0.24061,-0.24571 0.0292,-0.0219 0.0555,-0.0292 0.0656,-0.0555 l 12.21772,-21.17009 z m -89.744888,21.65239 -24.997436,-43.30472 11.946342,-20.69296 24.997412,43.30987 z m 77.798498,0.96454 H 93.333971 l 11.946359,-20.68781 h 76.12536 z M 28.041237,155.39424 66.105193,89.467484 H 116.11164 L 104.16016,110.16041 H 78.609708 c -0.02552,0 -0.03974,0.004 -0.05031,0.0116 -0.05542,0 -0.09005,0.003 -0.131247,0.0145 -0.05031,0.003 -0.09005,0.0219 -0.139991,0.0365 -0.03974,0.0145 -0.06562,0.0292 -0.105352,0.05 -0.02552,0.003 -0.03645,0.003 -0.06562,0.0145 -0.01458,0.0102 -0.02552,0.0292 -0.03645,0.0413 -0.03973,0.0183 -0.06562,0.0503 -0.105352,0.0748 -0.03645,0.0292 -0.06052,0.0606 -0.09113,0.0951 -0.02552,0.0365 -0.05031,0.0656 -0.07474,0.10167 -0.01458,0.0145 -0.02552,0.0256 -0.03974,0.0449 l -13.067824,22.61699 c -0.01278,0.0365 -0.01278,0.0748 -0.02443,0.11561 -0.03464,0.0591 -0.05016,0.11952 -0.06559,0.18518 -0.01278,0.0606 -0.01278,0.12098 -0.01278,0.1812 0,0.0606 0,0.11952 0.01278,0.18009 0.01531,0.0656 0.03099,0.12606 0.06559,0.18629 0.01531,0.0398 0.01531,0.0799 0.02443,0.11589 l 12.233161,21.17005 z M 52.485666,67.815114 64.43716,88.502945 26.368054,154.4297 14.4217,133.74191 Z m 26.124042,-0.964545 h 25.550452 l 11.95148,20.687793 H 66.105193 L 54.158851,66.850569 Z M 104.71829,22.57615 142.78228,88.502945 117.7848,131.81279 105.83333,111.125 118.61818,88.985221 c 0.0145,-0.02193 0.0145,-0.03645 0.0145,-0.05548 0.0292,-0.03979 0.0398,-0.07581 0.0555,-0.120979 0.0145,-0.03979 0.0256,-0.07988 0.0365,-0.124611 0,-0.04633 0.0145,-0.08089 0.0145,-0.126062 0,-0.02193 0.0145,-0.03645 0.0145,-0.05548 0,-0.02193 -0.0145,-0.03979 -0.0145,-0.06056 0,-0.03979 -0.0145,-0.07988 -0.0145,-0.120979 -0.0145,-0.04488 -0.0256,-0.08496 -0.0365,-0.129839 -0.0145,-0.04125 -0.0256,-0.08089 -0.0555,-0.115897 0,-0.02193 0,-0.03979 -0.0145,-0.05548 L 105.55167,65.402929 c -0.0145,-0.03645 -0.0502,-0.06052 -0.0748,-0.09004 -0.0412,-0.05031 -0.0809,-0.100254 -0.13129,-0.146552 -0.0502,-0.04485 -0.09,-0.06926 -0.15566,-0.105352 -0.0502,-0.02916 -0.10021,-0.05541 -0.15056,-0.07474 -0.0656,-0.02552 -0.1313,-0.03645 -0.19687,-0.0412 -0.0502,-0.0036 -0.0748,-0.02552 -0.12461,-0.02552 H 80.282512 Z m 38.63241,110.20118 h -23.89783 l 25.00257,-43.309846 h 23.89269 z M 130.28418,21.611595 168.34813,87.538362 H 144.45544 L 106.38632,21.611595 Z M 12.37684,133.92196 c 0.01278,0.0656 0.03464,0.1262 0.06559,0.18629 0.01278,0.0398 0.01278,0.0799 0.03464,0.11589 l 13.056236,22.61693 c 0.01278,0.007 0.02588,0.0145 0.03609,0.0292 0.02443,0.0398 0.05531,0.0758 0.07973,0.11052 0.05016,0.0503 0.100327,0.09 0.150451,0.1313 0.03099,0.0256 0.0553,0.0591 0.09132,0.0799 0.01423,0.0102 0.03988,0.003 0.05531,0.0145 0.124756,0.0656 0.266236,0.11052 0.421832,0.11589 h 51.67451 l 12.784858,22.13465 c 0.01458,0.0145 0.02552,0.0183 0.03645,0.0365 0.02916,0.0365 0.05541,0.0758 0.08092,0.11052 0.05031,0.0503 0.100255,0.09 0.155666,0.12984 0.02552,0.0256 0.05031,0.0555 0.08495,0.0809 0.01458,0.004 0.02916,0.004 0.05541,0.0145 0.126136,0.0642 0.266128,0.11052 0.42183,0.11052 h 78.350257 c 0.16587,0 0.30731,-0.0463 0.43725,-0.11052 0.0365,-0.0219 0.0657,-0.0463 0.10021,-0.0707 0.0912,-0.0657 0.18119,-0.14547 0.24681,-0.24572 0.0145,-0.0219 0.0398,-0.0292 0.0503,-0.0553 l 13.06652,-22.61692 c 0.0145,-0.0219 0.0145,-0.0412 0.0145,-0.0555 0.0256,-0.0413 0.0365,-0.0809 0.0503,-0.1159 0.0145,-0.0449 0.0256,-0.086 0.0398,-0.13129 0,-0.0449 0.0145,-0.0799 0.0145,-0.12461 0,-0.0219 0.0145,-0.0365 0.0145,-0.0555 0,-0.0256 -0.0145,-0.0413 -0.0145,-0.0606 0,-0.0412 -0.0145,-0.0809 -0.0145,-0.12606 -0.0145,-0.0398 -0.0292,-0.0799 -0.0398,-0.12607 -0.0145,-0.0398 -0.0256,-0.0799 -0.0503,-0.11444 0,-0.0219 0,-0.0413 -0.0145,-0.0555 l -25.83715,-44.75165 12.77072,-22.139775 c 0.0145,-0.02193 0.0145,-0.03645 0.0256,-0.05548 0.0145,-0.03979 0.0256,-0.07581 0.0503,-0.120979 0.0145,-0.03979 0.0292,-0.07988 0.0292,-0.12461 0.0145,-0.04633 0.0145,-0.0809 0.0256,-0.126063 0,-0.02193 0,-0.03645 0,-0.05548 0,-0.02193 0,-0.03979 0,-0.06056 -0.0145,-0.03979 -0.0145,-0.07988 -0.0256,-0.120979 0,-0.04488 -0.0145,-0.08496 -0.0292,-0.129839 -0.0256,-0.04125 -0.0365,-0.08089 -0.0503,-0.115896 -0.0145,-0.02193 -0.0145,-0.03979 -0.0256,-0.05548 l -39.1769,-67.853626 c -0.0145,-0.03464 -0.0503,-0.06045 -0.0758,-0.09004 -0.0398,-0.05016 -0.0748,-0.100327 -0.12984,-0.145312 -0.0503,-0.0463 -0.10166,-0.07587 -0.15166,-0.105469 -0.0553,-0.03099 -0.1053,-0.0553 -0.15566,-0.07587 -0.0642,-0.02588 -0.1403,-0.03464 -0.20597,-0.03988 -0.0398,-0.0051 -0.0748,-0.02588 -0.11561,-0.02588 h -26.11762 c -0.0145,0 -0.0292,0.01017 -0.0555,0.01017 -0.0365,0.0051 -0.0758,0.01017 -0.12606,0.02042 -0.0398,0.0051 -0.0799,0.01423 -0.12984,0.03464 -0.0413,0.01531 -0.0758,0.02588 -0.1159,0.04502 -0.0145,0.01017 -0.0412,0.01017 -0.0502,0.02042 -0.0145,0.01017 -0.0256,0.02443 -0.0413,0.03464 -0.0398,0.02588 -0.0748,0.05016 -0.10021,0.08104 -0.0398,0.02953 -0.0656,0.05917 -0.09,0.09519 -0.0398,0.02953 -0.0657,0.06045 -0.0809,0.09519 -0.0145,0.02042 -0.0365,0.02953 -0.0365,0.04502 L 78.054852,64.920752 H 52.483807 c -0.02443,0 -0.03464,0.01089 -0.05016,0.01089 -0.05016,0.0036 -0.09002,0.01089 -0.124755,0.01823 -0.0553,0.0036 -0.09132,0.01458 -0.13116,0.03645 -0.03988,0.01089 -0.07459,0.02552 -0.115752,0.04483 -0.02443,0.01089 -0.03988,0.01089 -0.05016,0.02187 -0.02443,0.0073 -0.03988,0.02552 -0.0553,0.03645 -0.03464,0.02552 -0.06045,0.05031 -0.100328,0.07983 -0.02443,0.02916 -0.06559,0.06052 -0.09002,0.09661 -0.02588,0.02916 -0.05016,0.05907 -0.07587,0.09514 -0.01423,0.01823 -0.02443,0.02552 -0.03988,0.04485 L 12.475296,133.26186 c -0.02443,0.0365 -0.02443,0.0748 -0.03464,0.1156 -0.03099,0.0591 -0.05531,0.11953 -0.06559,0.1852 -0.01531,0.0606 -0.01531,0.12098 -0.01531,0.18118 0,0.0606 0,0.11953 0.01531,0.18009"
       style="fill:#7256d5;fill-opacity:1;fill-rule:nonzero;stroke:#7256d5;stroke-width:1.286;stroke-opacity:1;stroke-miterlimit:4;stroke-dasharray:none;stroke-linejoin:miter"
       id="path71" />
  </g>
</svg>
