<?xml version="1.0" encoding="UTF-8" standalone="no"?>
<!-- Created with Inkscape (http://www.inkscape.org/) -->

<svg
   width="172.97404mm"
   height="172.97404mm"
   viewBox="0 0 172.97404 161.5435"
   version="1.1"
   id="svg202"
   inkscape:version="1.1.1 (c3084ef, 2021-09-22)"
   sodipodi:docname="logo1.svg"
   xmlns:inkscape="http://www.inkscape.org/namespaces/inkscape"
   xmlns:sodipodi="http://sodipodi.sourceforge.net/DTD/sodipodi-0.dtd"
   xmlns="http://www.w3.org/2000/svg"
   xmlns:svg="http://www.w3.org/2000/svg">
  <sodipodi:namedview
     id="namedview204"
     pagecolor="transparent"
     bordercolor="#7256d5"
     borderopacity="1.0"
     inkscape:pageshadow="2"
     inkscape:pageopacity="0.0"
     inkscape:pagecheckerboard="0"
     inkscape:document-units="mm"
     showgrid="true"
     width="200mm"
     inkscape:showpageshadow="false"
     inkscape:zoom="1.22"
     inkscape:cx="412.70492"
     inkscape:cy="318.85246"
     inkscape:window-width="1920"
     inkscape:window-height="1080"
     inkscape:window-x="0"
     inkscape:window-y="0"
     inkscape:window-maximized="0"
     inkscape:current-layer="layer1"
     fit-margin-top="0"
     fit-margin-left="0"
     fit-margin-right="0"
     fit-margin-bottom="0"
     inkscape:snap-bbox="true"
     inkscape:bbox-paths="true">
    <inkscape:grid
       type="xygrid"
       id="grid206"
       originx="-23.433057"
       originy="-38.078624" />
  </sodipodi:namedview>
  <defs
     id="defs199">
    <clipPath
       clipPathUnits="userSpaceOnUse"
       id="clipPath2024">
      <g
         inkscape:label="Clip"
         id="use2026"
         style="fill:#7256d5;fill-opacity:1;stroke:#7256d5;stroke-width:1;stroke-linejoin:miter;stroke-miterlimit:4;stroke-dasharray:none;stroke-opacity:1">
        <path
           style="color:#7256d5;fill:#7256d5;fill-opacity:1;stroke:#7256d5;stroke-width:1;stroke-linejoin:miter;stroke-miterlimit:4;stroke-dasharray:none;stroke-opacity:1"
           d="M 181.40569,155.39424 H 105.28033 L 80.282877,112.08955 h 23.877283 l 12.78614,22.13462 c 0.0145,0.0145 0.0256,0.0182 0.0398,0.0365 0.0256,0.0365 0.0365,0.0707 0.0748,0.10529 0.0412,0.0555 0.0915,0.09 0.14145,0.13637 0.0398,0.0182 0.0656,0.0555 0.09,0.0748 h 0.0145 c 0.0145,0.0102 0.0256,0.0102 0.0365,0.0145 0.13129,0.0707 0.27123,0.1159 0.44239,0.1159 h 26.11764 c 0.15676,0 0.29712,-0.0449 0.42311,-0.1159 0.0398,-0.0145 0.0799,-0.0398 0.10529,-0.0656 0.10021,-0.0707 0.1801,-0.15055 0.24061,-0.24571 0.0292,-0.0219 0.0555,-0.0292 0.0656,-0.0555 l 12.21772,-21.17009 z m -89.744888,21.65239 -24.997436,-43.30472 11.946342,-20.69296 24.997412,43.30987 z m 77.798498,0.96454 H 93.333971 l 11.946359,-20.68781 h 76.12536 z M 28.041237,155.39424 66.105193,89.467484 H 116.11164 L 104.16016,110.16041 H 78.609708 c -0.02552,0 -0.03974,0.004 -0.05031,0.0116 -0.05542,0 -0.09005,0.003 -0.131247,0.0145 -0.05031,0.003 -0.09005,0.0219 -0.139991,0.0365 -0.03974,0.0145 -0.06562,0.0292 -0.105352,0.05 -0.02552,0.003 -0.03645,0.003 -0.06562,0.0145 -0.01458,0.0102 -0.02552,0.0292 -0.03645,0.0413 -0.03973,0.0183 -0.06562,0.0503 -0.105352,0.0748 -0.03645,0.0292 -0.06052,0.0606 -0.09113,0.0951 -0.02552,0.0365 -0.05031,0.0656 -0.07474,0.10167 -0.01458,0.0145 -0.02552,0.0256 -0.03974,0.0449 l -13.067824,22.61699 c -0.01278,0.0365 -0.01278,0.0748 -0.02443,0.11561 -0.03464,0.0591 -0.05016,0.11952 -0.06559,0.18518 -0.01278,0.0606 -0.01278,0.12098 -0.01278,0.1812 0,0.0606 0,0.11952 0.01278,0.18009 0.01531,0.0656 0.03099,0.12606 0.06559,0.18629 0.01531,0.0398 0.01531,0.0799 0.02443,0.11589 l 12.233161,21.17005 z M 52.485666,67.815114 64.43716,88.502945 26.368054,154.4297 14.4217,133.74191 Z m 26.124042,-0.964545 h 25.550452 l 11.95148,20.687793 H 66.105193 L 54.158851,66.850569 Z M 104.71829,22.57615 142.78228,88.502945 117.7848,131.81279 105.83333,111.125 118.61818,88.985221 c 0.0145,-0.02193 0.0145,-0.03645 0.0145,-0.05548 0.0292,-0.03979 0.0398,-0.07581 0.0555,-0.120979 0.0145,-0.03979 0.0256,-0.07988 0.0365,-0.124611 0,-0.04633 0.0145,-0.08089 0.0145,-0.126062 0,-0.02193 0.0145,-0.03645 0.0145,-0.05548 0,-0.02193 -0.0145,-0.03979 -0.0145,-0.06056 0,-0.03979 -0.0145,-0.07988 -0.0145,-0.120979 -0.0145,-0.04488 -0.0256,-0.08496 -0.0365,-0.129839 -0.0145,-0.04125 -0.0256,-0.08089 -0.0555,-0.115897 0,-0.02193 0,-0.03979 -0.0145,-0.05548 L 105.55167,65.402929 c -0.0145,-0.03645 -0.0502,-0.06052 -0.0748,-0.09004 -0.0412,-0.05031 -0.0809,-0.100254 -0.13129,-0.146552 -0.0502,-0.04485 -0.09,-0.06926 -0.15566,-0.105352 -0.0502,-0.02916 -0.10021,-0.05541 -0.15056,-0.07474 -0.0656,-0.02552 -0.1313,-0.03645 -0.19687,-0.0412 -0.0502,-0.0036 -0.0748,-0.02552 -0.12461,-0.02552 H 80.282512 Z m 38.63241,110.20118 h -23.89783 l 25.00257,-43.309846 h 23.89269 z M 130.28418,21.611595 168.34813,87.538362 H 144.45544 L 106.38632,21.611595 Z M 12.37684,133.92196 c 0.01278,0.0656 0.03464,0.1262 0.06559,0.18629 0.01278,0.0398 0.01278,0.0799 0.03464,0.11589 l 13.056236,22.61693 c 0.01278,0.007 0.02588,0.0145 0.03609,0.0292 0.02443,0.0398 0.05531,0.0758 0.07973,0.11052 0.05016,0.0503 0.100327,0.09 0.150451,0.1313 0.03099,0.0256 0.0553,0.0591 0.09132,0.0799 0.01423,0.0102 0.03988,0.003 0.05531,0.0145 0.124756,0.0656 0.266236,0.11052 0.421832,0.11589 h 51.67451 l 12.784858,22.13465 c 0.01458,0.0145 0.02552,0.0183 0.03645,0.0365 0.02916,0.0365 0.05541,0.0758 0.08092,0.11052 0.05031,0.0503 0.100255,0.09 0.155666,0.12984 0.02552,0.0256 0.05031,0.0555 0.08495,0.0809 0.01458,0.004 0.02916,0.004 0.05541,0.0145 0.126136,0.0642 0.266128,0.11052 0.42183,0.11052 h 78.350257 c 0.16587,0 0.30731,-0.0463 0.43725,-0.11052 0.0365,-0.0219 0.0657,-0.0463 0.10021,-0.0707 0.0912,-0.0657 0.18119,-0.14547 0.24681,-0.24572 0.0145,-0.0219 0.0398,-0.0292 0.0503,-0.0553 l 13.06652,-22.61692 c 0.0145,-0.0219 0.0145,-0.0412 0.0145,-0.0555 0.0256,-0.0413 0.0365,-0.0809 0.0503,-0.1159 0.0145,-0.0449 0.0256,-0.086 0.0398,-0.13129 0,-0.0449 0.0145,-0.0799 0.0145,-0.12461 0,-0.0219 0.0145,-0.0365 0.0145,-0.0555 0,-0.0256 -0.0145,-0.0413 -0.0145,-0.0606 0,-0.0412 -0.0145,-0.0809 -0.0145,-0.12606 -0.0145,-0.0398 -0.0292,-0.0799 -0.0398,-0.12607 -0.0145,-0.0398 -0.0256,-0.0799 -0.0503,-0.11444 0,-0.0219 0,-0.0413 -0.0145,-0.0555 l -25.83715,-44.75165 12.77072,-22.139775 c 0.0145,-0.02193 0.0145,-0.03645 0.0256,-0.05548 0.0145,-0.03979 0.0256,-0.07581 0.0503,-0.120979 0.0145,-0.03979 0.0292,-0.07988 0.0292,-0.12461 0.0145,-0.04633 0.0145,-0.0809 0.0256,-0.126063 0,-0.02193 0,-0.03645 0,-0.05548 0,-0.02193 0,-0.03979 0,-0.06056 -0.0145,-0.03979 -0.0145,-0.07988 -0.0256,-0.120979 0,-0.04488 -0.0145,-0.08496 -0.0292,-0.129839 -0.0256,-0.04125 -0.0365,-0.08089 -0.0503,-0.115896 -0.0145,-0.02193 -0.0145,-0.03979 -0.0256,-0.05548 l -39.1769,-67.853626 c -0.0145,-0.03464 -0.0503,-0.06045 -0.0758,-0.09004 -0.0398,-0.05016 -0.0748,-0.100327 -0.12984,-0.145312 -0.0503,-0.0463 -0.10166,-0.07587 -0.15166,-0.105469 -0.0553,-0.03099 -0.1053,-0.0553 -0.15566,-0.07587 -0.0642,-0.02588 -0.1403,-0.03464 -0.20597,-0.03988 -0.0398,-0.0051 -0.0748,-0.02588 -0.11561,-0.02588 h -26.11762 c -0.0145,0 -0.0292,0.01017 -0.0555,0.01017 -0.0365,0.0051 -0.0758,0.01017 -0.12606,0.02042 -0.0398,0.0051 -0.0799,0.01423 -0.12984,0.03464 -0.0413,0.01531 -0.0758,0.02588 -0.1159,0.04502 -0.0145,0.01017 -0.0412,0.01017 -0.0502,0.02042 -0.0145,0.01017 -0.0256,0.02443 -0.0413,0.03464 -0.0398,0.02588 -0.0748,0.05016 -0.10021,0.08104 -0.0398,0.02953 -0.0656,0.05917 -0.09,0.09519 -0.0398,0.02953 -0.0657,0.06045 -0.0809,0.09519 -0.0145,0.02042 -0.0365,0.02953 -0.0365,0.04502 L 78.054852,64.920752 H 52.483807 c -0.02443,0 -0.03464,0.01089 -0.05016,0.01089 -0.05016,0.0036 -0.09002,0.01089 -0.124755,0.01823 -0.0553,0.0036 -0.09132,0.01458 -0.13116,0.03645 -0.03988,0.01089 -0.07459,0.02552 -0.115752,0.04483 -0.02443,0.01089 -0.03988,0.01089 -0.05016,0.02187 -0.02443,0.0073 -0.03988,0.02552 -0.0553,0.03645 -0.03464,0.02552 -0.06045,0.05031 -0.100328,0.07983 -0.02443,0.02916 -0.06559,0.06052 -0.09002,0.09661 -0.02588,0.02916 -0.05016,0.05907 -0.07587,0.09514 -0.01423,0.01823 -0.02443,0.02552 -0.03988,0.04485 L 12.475296,133.26186 c -0.02443,0.0365 -0.02443,0.0748 -0.03464,0.1156 -0.03099,0.0591 -0.05531,0.11953 -0.06559,0.1852 -0.01531,0.0606 -0.01531,0.12098 -0.01531,0.18118 0,0.0606 0,0.11953 0.01531,0.18009"
           id="path1437" />
        <path
           style="color:#7256d5;fill:#7256d5;fill-opacity:1;stroke:#7256d5;stroke-width:1;stroke-linejoin:miter;stroke-miterlimit:4;stroke-dasharray:none;stroke-opacity:1"
           d="m 104.71875,19.039062 c -0.31516,0 -0.1961,0.0098 -0.0566,0.0098 h -0.043 l -0.0449,0.0078 c -0.0227,0.0032 -0.0726,0.0095 -0.11914,0.01758 -0.002,2.14e-4 -0.004,0.0017 -0.006,0.002 -0.0812,0.01089 -0.18783,0.0364 -0.28516,0.07617 -0.0274,0.0095 -0.0739,0.02403 -0.15039,0.06055 l -0.0469,0.02344 -0.0449,0.0293 c 0.14465,-0.101455 0.19509,-0.0886 0.17773,-0.08398 -0.0174,0.0046 -0.12929,-0.03499 -0.3418,0.207031 -0.0298,0.0212 -0.0584,0.04374 -0.0957,0.08008 -0.014,0.01263 -0.0219,0.02586 -0.0352,0.03906 -0.0689,0.05113 -0.12646,0.146841 -0.1875,0.232422 -0.0588,0.055 -0.18945,0.154772 -0.18945,0.423828 l 0.0859,-0.322265 -25.652346,44.435547 H 52.484375 c -0.028,0 -0.03742,0.0081 -0.06445,0.01172 h -0.0098 l -0.02344,0.002 c -0.0496,0.0036 -0.07997,0.01117 -0.119141,0.01758 -0.121813,0.0079 -0.294866,0.05643 -0.398437,0.113281 l 0.138671,-0.05664 c -0.07753,0.02117 -0.137784,0.04879 -0.189453,0.07227 -0.0059,0.002 -0.03149,0.02177 -0.04102,0.02539 -0.14077,0.06519 -0.26821,0.154617 -0.19336,0.101562 l -0.0039,0.0039 -0.0059,0.0039 c -0.07194,0.053 -0.09341,0.07404 -0.101563,0.08008 l -0.06055,0.04492 -0.04883,0.05859 c 0.05815,-0.06941 -0.01347,-0.02014 -0.128906,0.150391 l 0.05078,-0.06641 c -0.03236,0.03646 -0.06797,0.07963 -0.101562,0.125 0.02631,-0.03371 0.01724,-0.02649 -0.03516,0.03906 l -0.03125,0.03906 -39.199218,67.896481 0.02344,-0.0351 c -0.0899,0.13432 -0.07288,0.15248 -0.08008,0.20312 -0.0441,0.0873 -0.08862,0.19778 -0.113281,0.33203 -0.02806,0.13498 -0.03125,0.25072 -0.03125,0.30469 0,0.0539 0.0041,0.16867 0.03125,0.30078 h -0.002 c 5.27e-4,0.003 0.0014,0.005 0.002,0.008 0.0028,0.0131 4.62e-4,0.0157 0.0039,0.0293 l 0.0059,-0.002 c 0.02593,0.1143 0.06358,0.22576 0.113281,0.32226 l -0.04102,-0.0977 c -0.02566,-0.0799 -0.03422,0.0368 0.09766,0.2539 l 13.138672,22.75977 0.05469,0.0293 c 5e-6,-1e-5 0.002,0.004 0.002,0.004 l 0.03125,0.0449 0.03906,0.0391 c 0.08207,0.0823 0.153571,0.13587 0.197266,0.17187 -0.04453,-0.0368 0.03445,0.0376 0.148437,0.11524 0.02752,0.0177 0.02279,0.006 0.04687,0.0176 l 0.01563,0.0117 0.04492,0.0234 c 0.0408,0.0215 0.102038,0.0202 0.146485,0.0391 0.0054,0.002 0.0121,0.004 0.01758,0.006 0.164072,0.0677 0.331843,0.13752 0.535156,0.14453 h 0.01172 51.314453 l 12.640625,21.88868 0.06055,0.0586 c 0.0016,0.002 3.75e-4,4e-4 0.002,0.002 0.0099,0.0137 0.021,0.0298 0.05078,0.0703 l 0.0293,0.0391 0.03516,0.0352 c 0.05803,0.058 0.113169,0.0983 0.167969,0.14063 0.0049,0.007 0.04494,0.0603 0.146484,0.13476 l 0.0957,0.0703 0.115234,0.0312 c 0.120054,0.0329 0.03631,0.0102 -0.01367,-0.01 l -0.05273,-0.0234 c 0.186111,0.0947 0.429664,0.17969 0.71289,0.17969 h 78.351563 c 0.28553,0 0.53466,-0.0838 0.7207,-0.17578 l 0.0234,-0.0117 0.0234,-0.0137 c 0.0874,-0.0525 0.1315,-0.0912 0.14062,-0.0977 l 0.002,-0.002 h 0.002 c 0.10954,-0.0789 0.23561,-0.2041 0.34961,-0.35352 0.0465,-0.0427 0.11615,-0.10165 0.16797,-0.23046 l -0.0391,0.082 13.0664,-22.61719 -0.0215,0.0332 c 0.1105,-0.16689 0.12305,-0.39585 0.12305,-0.41015 l -0.0977,0.33789 c 0.0795,-0.12827 0.10609,-0.23023 0.10156,-0.21875 l 0.008,-0.0176 0.006,-0.0195 c 0.0203,-0.0628 0.0334,-0.10612 0.043,-0.13672 l 0.0293,-0.0937 v -0.0996 c 0,0.0624 0.005,-0.0242 0.01,-0.082 0.009,-0.0415 0.0195,-0.0359 0.0195,-0.0977 0,-0.0544 -0.0109,-0.0641 -0.0195,-0.10547 -0.004,-0.0509 -0.01,-0.1394 -0.01,-0.0801 v -0.11328 l -0.0391,-0.10742 c -0.0148,-0.0406 -0.0178,-0.0518 -0.0176,-0.0508 l -0.01,-0.0371 -0.0137,-0.0391 c -0.003,-0.008 -0.0222,-0.11564 -0.13086,-0.26758 l 0.1211,0.375 c 0,-0.0219 0.0147,-0.29659 -0.20899,-0.51562 l 0.10742,0.13671 -25.65234,-44.42968 12.56641,-21.785159 c 0.0865,-0.130851 0.10359,-0.189868 0.043,-0.08594 l 0.0293,-0.04883 0.0195,-0.05469 c 0.0211,-0.05789 0.0172,-0.04314 0.0117,-0.0332 l 0.0234,-0.04297 0.0156,-0.04492 c 0.0142,-0.03898 0.0684,-0.158144 0.0684,-0.34375 l -0.0293,0.191406 c 0.0417,-0.133344 0.0442,-0.192752 0.0371,-0.164063 l 0.0176,-0.07617 V 88.502191 88.32641 l -0.0371,-0.101563 0.0117,0.0957 c 0,-0.183375 -0.0495,-0.296445 -0.0605,-0.330078 l -0.0254,-0.07422 -0.0391,-0.06445 c 0.0286,0.04609 0.0322,0.06794 0,-0.01367 l -0.0234,-0.0625 -0.0371,-0.05664 c 0.0741,0.112046 0.10686,0.131237 -0.0371,-0.07227 l 0.0312,0.05078 -39.17774,-67.853516 0.0371,0.07227 c -0.10645,-0.254305 -0.18636,-0.275846 -0.16601,-0.240235 l -0.002,-0.0039 c -0.0236,-0.03012 -0.0951,-0.125731 -0.21289,-0.226563 -0.10206,-0.08946 -0.19975,-0.148706 -0.24219,-0.173828 l -0.006,-0.0039 -0.008,-0.0039 c -0.0744,-0.04169 -0.14995,-0.08004 -0.22656,-0.111328 h -0.002 c -0.18096,-0.07295 -0.31344,-0.07931 -0.39649,-0.08594 0.0576,-6.52e-4 0.0522,-0.02734 -0.16601,-0.02734 z m -0.0586,1.279297 -0.0918,0.05469 c -0.006,0.003 0.002,-0.0011 0.0625,-0.02344 l 0.01,-0.002 h 0.002 l 0.0234,-0.0039 c 0.0266,-0.0054 0.0446,-0.0079 0.0859,-0.01367 l -0.0898,0.0059 c 0.19206,1e-6 0.3428,-0.0098 0.0566,-0.0098 h 26.11719 c -0.17746,0 -0.17787,-0.0075 0.0332,0.01953 l 0.0156,0.002 0.0156,0.002 c 0.0386,0.0031 0.0337,0.0016 0.0137,-0.0059 4.6e-4,1.85e-4 0.001,-1.86e-4 0.002,0 0.0237,0.0097 0.0465,0.0211 0.082,0.04102 0.0194,0.01202 0.0383,0.02406 0.0312,0.01758 l 0.0137,0.01367 0.0156,0.01172 c -0.0229,-0.01872 -0.0223,-0.02303 0.0332,0.04687 l 0.008,0.0098 0.008,0.0098 c 0.0991,0.114965 0.0578,0.126122 -0.0293,-0.08203 l 0.0156,0.03906 39.19141,67.878906 c 3.3e-4,0.0021 0.0203,0.04198 0.0254,0.05664 v 0.01758 l 0.0215,0.08203 c -0.001,-0.0054 0.005,0.01907 0.004,0.01563 l -0.0254,0.08203 v 0.0293 c -0.006,0.01427 -0.0139,0.03256 -0.0176,0.04297 -0.001,0.0033 -0.005,0.01079 -0.006,0.01367 l -12.95313,22.453125 25.95118,44.95117 v 0.0625 l 0.0879,0.12109 0.0156,0.0215 c 1.1e-4,-0.002 -9e-5,0.006 0,0.004 -0.001,-0.004 -0.0252,-0.0493 -0.0137,-0.0176 0.009,0.0291 0.018,0.0575 0.0254,0.0781 9e-4,0.002 0.001,0.007 0.002,0.01 1.3e-4,9.8e-4 -1.3e-4,9.8e-4 0,0.002 -0.0163,0.0525 -0.0271,0.0903 -0.0352,0.11523 l 0.0137,-0.0371 c -0.0321,0.0815 -0.0264,0.0593 0.002,0.0137 l -0.0156,0.0234 -0.082,0.13086 v 0.043 l -12.98047,22.4668 c -0.021,0.0237 -0.0192,0.011 -0.043,0.0469 l -0.002,0.002 c -0.004,0.006 -0.0323,0.0375 -0.0859,0.0762 l 0.006,-0.002 c -0.0328,0.0232 -0.025,0.0172 -0.0332,0.0234 -0.0558,0.0256 -0.0925,0.0391 -0.13281,0.0391 H 91.662109 c -0.02818,0 -0.06275,-0.007 -0.128906,-0.041 l -0.01367,-0.0137 -0.04297,-0.0312 c -0.027,-0.0194 -0.03875,-0.0306 -0.05273,-0.043 -0.01682,-0.0238 -0.02608,-0.0379 -0.05664,-0.0762 l 0.04883,0.0703 c -0.01355,-0.0226 -0.02967,-0.033 -0.04687,-0.0547 L 78.414062,156.67969 H 26.390625 c -0.04549,-0.002 -0.09,-0.0143 -0.144531,-0.043 l 0.08398,0.0547 c -0.04013,-0.0299 -0.03727,-0.009 -0.07227,-0.0273 l -0.01758,-0.0137 -0.02734,-0.0156 c 0.114396,0.066 0.112138,0.0783 -0.0039,-0.0176 v -0.002 c -0.04285,-0.0353 -0.06149,-0.0496 -0.08008,-0.0664 -1.07e-4,3.2e-4 -0.01402,-0.0194 -0.01172,-0.0156 l -0.0098,-0.0156 -0.0098,-0.0137 c -0.01359,-0.0196 -0.02054,-0.0143 -0.03516,-0.0312 l -13.03125,-22.57618 -0.0039,-0.006 c 0.08815,0.14514 0.07856,0.18099 0.02734,0.0215 l -0.01563,-0.0508 -0.02539,-0.0469 c -0.0068,-0.0132 -0.0052,-0.0121 -0.0059,-0.0156 l -0.605469,0.11914 0.595703,-0.15235 c 0.009,0.0355 0.0039,0.0391 0.0039,-0.0215 0,-0.0602 0.0056,-0.0612 -0.0039,-0.0234 l 0.0078,-0.0293 0.0039,-0.0293 c -0.0044,0.0279 -0.01153,0.0356 0,0.0137 l 0.03516,-0.0684 0.01953,-0.0742 c 0.02262,-0.0904 -0.01158,4e-4 -0.03711,0.0586 L 52.175781,65.779297 c 0.0076,-0.0082 -0.0042,0.0095 0.02148,-0.02344 l 0.0078,-0.0098 0.0098,-0.01172 c 0.01217,-0.01707 0.01969,-0.02579 0.0332,-0.04102 l 0.02734,-0.03125 0.0078,-0.01172 c 0.0051,-0.0042 0.01004,-0.0087 0.01367,-0.01172 l 0.06641,-0.01953 0.02148,-0.02344 0.03516,-0.0098 0.0098,-0.0059 0.01172,-0.002 c 0.02164,-0.0046 0.02646,-0.005 0.03906,-0.0059 l -0.03711,0.002 0.0039,-0.002 c 0.0234,-7.9e-4 0.01709,-0.0054 0.03711,-0.0078 0.0017,0 0.0022,2.3e-5 0.0039,0 h 25.9375 L 104.42969,20.517578 c 0.008,-0.0094 0.005,-0.0045 0.0137,-0.01563 l 0.0371,-0.02734 0.0371,-0.05469 0.0293,-0.02148 0.0195,-0.02344 0.002,-0.002 c 0.0395,-0.02873 0.0776,-0.05789 0.0352,-0.0293 0.0286,-0.01497 0.0177,0.0019 0.0566,-0.02539 z m 0.61328,0.650391 38.81054,67.212891 h 25.37696 L 130.65625,20.96875 h -0.37109 z m -0.55469,0.320312 -0.55664,0.964844 L 79.169922,65.5625 h 25.511718 c 0.0386,0.01 0.0549,0.01911 0.11524,0.02344 0.0255,0.0019 0.0215,0.0046 0.01,0 h 0.002 c 0.002,5.8e-4 0.0239,0.01107 0.0586,0.03125 l 0.006,0.0039 0.008,0.0039 c 0.0456,0.02506 0.0302,0.01547 0.0312,0.01758 0.005,0.005 0.0225,0.02452 0.0664,0.07813 l 0.002,0.002 0.002,0.002 c 0.11042,0.132498 0.0562,0.126041 -0.0273,-0.08398 l 0.0156,0.04297 13.01953,22.535156 v 0.09375 l 0.0957,0.111328 c 0.006,0.02213 0.0126,0.04384 0.0195,0.06641 0.001,0.0032 9.4e-4,0.0065 0.002,0.0098 2.4e-4,0.0019 -2.5e-4,0.0021 0,0.0039 -0.003,0.02263 -0.009,0.02132 -0.01,0.04687 l 0.002,-0.01953 c -0.008,0.03303 -0.0126,0.04821 -0.0156,0.05664 l -0.002,0.0059 -0.002,0.0039 -0.0898,0.121094 v 0.06641 L 105.08984,111.125 117.78516,133.09961 143.52539,88.501953 Z M 107.5,22.253906 h 22.41211 l 37.32226,64.640625 h -22.4082 z m -2.78125,1.609375 37.32031,64.640625 -24.2539,42.023434 -11.20899,-19.40234 12.59961,-21.818359 -0.0215,0.0332 c 0.0194,-0.02931 0.013,-0.05367 0.0273,-0.0918 0.0566,-0.09835 0.10515,-0.205114 0.11328,-0.228516 0.0239,-0.06706 0.0416,-0.129944 0.0547,-0.183594 l 0.0176,-0.07422 v -0.07813 c 0,0.07128 0.008,0.0013 0.0117,-0.101563 0.007,-0.0372 0.0176,-0.02934 0.0176,-0.08008 0,-0.06343 -0.0106,-0.06493 -0.0195,-0.105469 -0.004,-0.04954 -0.01,-0.145444 -0.01,-0.07617 v -0.09961 l -0.0312,-0.09766 c -0.01,-0.02966 -0.0154,-0.05107 -0.0234,-0.08398 l -0.008,-0.03125 -0.01,-0.0293 c -0.006,-0.01652 -0.0393,-0.162789 -0.17383,-0.320313 l 0.1543,0.417969 c 0,-0.02193 -0.006,-0.297875 -0.18555,-0.492188 l 0.0859,0.113282 -13.0664,-22.615235 0.0391,0.08398 c -0.11007,-0.276691 -0.22568,-0.326042 -0.17383,-0.259766 l -0.004,-0.0059 c -0.0375,-0.04603 -0.0956,-0.12084 -0.18945,-0.207032 l -0.004,-0.0039 -0.004,-0.002 c -0.0878,-0.07843 -0.19115,-0.143209 -0.26758,-0.185547 -0.0643,-0.03719 -0.14033,-0.07838 -0.23633,-0.115234 -0.14143,-0.0544 -0.27629,-0.07446 -0.38086,-0.08203 -0.0496,-0.01231 -0.0907,-0.02734 -0.16992,-0.02734 H 81.396484 Z m -51.673828,42.34375 12.689453,21.97461 H 117.22656 L 104.53125,66.207031 H 78.609375 Z m -0.558594,0.322266 -0.556641,0.964844 -38.249999,66.248049 12.687499,21.97265 38.8125,-67.212887 z m 2.785156,0.964844 h 23.337891 25.179685 l 11.20899,19.40039 H 66.476562 Z M 52.486328,69.099609 63.695312,88.503906 26.367187,153.14258 15.164063,133.74219 Z m 117.818362,19.265625 0.006,0.0078 v 0.0059 z m 0.008,0.0098 0.01,0.01563 c -0.12177,-0.172123 -0.0894,-0.118796 0.0137,0.03711 l -0.0234,-0.04492 c 10e-4,0.0041 -4.2e-4,-0.0098 0,-0.0078 z m 0.0254,0.171875 c -0.001,0.0025 -8.5e-4,0.0034 -0.002,0.0059 -0.008,0.01823 -0.0112,0.02736 -0.0176,0.04297 -7.2e-4,0.0022 0.001,-0.01111 0,-0.0078 l 0.0176,-0.03906 z m -0.0273,0.07422 v 0.0078 l -0.01,0.01563 z M 65.734375,88.824219 26.927734,156.03711 h 1.113282 l 50.007812,0.002 -12.744141,-22.05273 c -0.0035,-0.0297 0.01077,-0.008 -0.02734,-0.10742 l -0.01758,-0.0449 -0.02539,-0.043 c 0.01618,0.0282 0.01701,0.0425 0.0039,-0.0137 l 0.002,0.0137 c 0.0046,0.0218 0.002,0.0137 0.002,-0.0469 0,-0.0602 0.0031,-0.0726 -0.002,-0.0488 l -0.002,0.0156 c 0.01356,-0.0577 0.01381,-0.0414 -0.0059,-0.008 l 0.04102,-0.0703 0.02148,-0.0781 c 0.02483,-0.087 0.0099,-0.0477 0.0078,-0.0488 l 12.988282,-22.47656 0.01563,-0.0176 0.03516,-0.0508 c 8.85e-4,-0.001 0.02672,-0.0355 0.05078,-0.0684 l 0.07617,-0.0352 0.01758,-0.0195 c 0.01875,-0.01 0.02714,-0.0138 0.02148,-0.0117 l -0.01563,0.006 0.0059,-0.006 h 0.0098 l 0.02734,-0.002 0.03711,-0.01 h 0.193359 l 0.01563,-0.0117 h 25.750002 l 12.69336,-21.978511 z m 78.349605,0 -25.74414,44.595701 h 25.38282 l 0.18554,-0.32031 25.55274,-44.275391 z M 66.476562,90.111328 H 114.99805 L 103.78906,109.51758 H 78.609375 c -0.09271,0 -0.280106,0.0281 -0.425781,0.13281 l 0.375,-0.12109 c -0.05783,0 -0.142552,0.0132 -0.222657,0.0273 -0.124272,0.0188 -0.232816,0.0501 -0.228515,0.0488 l -0.01953,0.006 -0.01953,0.008 c -0.05446,0.0199 -0.08083,0.0353 -0.115234,0.0527 -0.03167,0.008 -0.04669,0.007 -0.07227,0.0176 l -0.07031,0.0274 -0.0625,0.043 c -0.110647,0.0774 -0.06601,0.0555 -0.08008,0.0781 0.005,-0.002 -0.04037,0.0244 -0.0293,0.0176 l -0.03516,0.0215 -0.0293,0.0254 c -0.104195,0.0835 -0.15875,0.15513 -0.171875,0.16993 l -0.02344,0.0273 -0.02148,0.0312 c -0.0036,0.005 -0.0306,0.0422 -0.05273,0.0723 -0.0194,0.0216 -0.0335,0.0344 -0.05273,0.0605 l -0.02148,0.0293 -13.115235,22.69922 -0.01953,0.0566 c -0.05914,0.16891 -0.05461,0.21364 -0.03711,0.15234 l 0.06445,-0.14844 c -0.08895,0.15176 -0.119419,0.28967 -0.136719,0.36329 l -0.002,0.008 -0.002,0.006 c -0.03058,0.14498 -0.02539,0.25423 -0.02539,0.31445 0,0.0606 -0.0048,0.16951 0.02539,0.3125 l 0.002,0.008 0.002,0.006 c 0.01752,0.0751 0.04743,0.2127 0.132813,0.36133 l -0.04102,-0.0898 c -0.03665,-0.0953 -0.03706,-0.10327 0,0.043 l 0.02148,0.0859 11.722657,20.28321 -46.667969,-0.002 z m 78.349608,0 h 22.4082 l -24.25585,42.023442 h -22.41211 z m -66.435545,20.781252 -0.02539,0.0332 c 0.0481,-0.0542 0.04301,-0.0446 0.01172,-0.0195 l -0.06445,0.0449 c 0.146423,-0.0903 0.159677,-0.0955 0.03711,-0.0391 z m 0.779297,0.55469 25.738278,44.58984 h 77.61133 l -0.55664,-0.96484 -25.00781,-43.30274 -12.71485,22.03125 -0.0469,0.0352 -0.0645,0.0996 c -0.0104,0.0163 -0.023,0.0324 -0.0684,0.0644 l -0.0254,0.0176 -0.0234,0.0137 c -0.0491,0.0276 -0.0734,0.0332 -0.10742,0.0332 h -26.11914 c -0.058,0 -0.0726,-0.005 -0.13672,-0.0391 l -0.0293,-0.0156 -0.004,-0.002 -0.0371,-0.0254 -0.002,-0.002 -0.0371,-0.0488 -0.0391,-0.0352 -0.004,-0.008 c 0.0433,0.0449 0.0836,0.0989 0.0156,0.002 l -0.008,-0.0117 -0.01,-0.0117 c -0.0251,-0.0324 -0.008,-0.007 -0.0273,-0.0273 L 104.5305,111.44711 Z m -0.560547,0.3164 -12.6875,21.97852 25.738281,44.58984 0.556641,-0.96289 12.132813,-21.00977 z m 2.787109,0.96875 h 22.392576 l 12.64258,21.88672 0.0605,0.0606 c 0.0834,0.0834 0.0391,0.0393 -0.0117,-0.0234 -0.009,-0.006 0.0378,0.0615 0.11914,0.15039 0.0758,0.0826 0.15946,0.15993 0.16602,0.16602 l 0.0742,0.0723 0.0957,0.043 c -0.16679,-0.0763 -0.21055,-0.13841 -0.043,-0.006 l 0.17578,0.13867 h 0.21484 c 0.15926,0.058 0.31063,0.12891 0.50196,0.12891 h 26.11914 c 0.26099,0 0.4935,-0.0808 0.68945,-0.18359 0.0929,-0.0381 0.17344,-0.086 0.25586,-0.16211 0.10903,-0.0833 0.20563,-0.18843 0.29297,-0.30469 0.0666,-0.059 0.1473,-0.11912 0.19531,-0.24414 l -0.043,0.0918 11.66016,-20.20507 23.33789,40.41015 h -74.64063 z m -2.787109,1.60352 24.255855,42.02343 -11.205074,19.4004 -24.253906,-42.01758 z m 66.509765,20.39453 -0.0605,0.0644 c -0.0321,0.0241 -0.0417,0.0294 0.0156,-0.01 0.01,-0.007 0.0314,-0.0437 0.0449,-0.0547 z m -28.08008,0.42773 c 0.004,0.002 0.01,0.002 0.0137,0.004 0.008,10e-4 0.0957,0.0435 0.0547,0.0273 z M 104.9082,156.67969 92.220703,178.6543 h 77.609377 l 0.18554,-0.32227 12.50391,-21.65234 z m 0.74414,1.28711 h 74.64063 l -11.20508,19.40234 H 94.447266 Z m -14.388668,21.01757 c -0.03313,-0.0282 -0.01223,-0.0121 0.01758,0.0176 l 0.02539,0.0332 c -0.01443,-0.0147 -0.03355,-0.0428 -0.04297,-0.0508 z"
           id="path1439" />
      </g>
    </clipPath>
  </defs>
  <g
     inkscape:label="Layer1"
     inkscape:groupmode="layer"
     id="layer1"
     transform="translate(-11.71653,-19.039312)"
     style="display:inline">
    <path
       style="color:#7256d5;display:inline;fill:#7256d5;fill-opacity:1;stroke:#7256d5;stroke-width:0.76953;stroke-linejoin:miter;stroke-miterlimit:4;stroke-dasharray:none;stroke-opacity:1"
       d="M 162.5977,142.33984 H 103.68066 L 84.333932,109.20578 H 102.8137 l 9.89581,16.93604 c 0.0112,0.0111 0.0198,0.0139 0.0308,0.0279 0.0198,0.0279 0.0282,0.0541 0.0579,0.0806 0.0319,0.0425 0.0708,0.0689 0.10947,0.10434 0.0308,0.0139 0.0508,0.0425 0.0697,0.0572 h 0.0112 c 0.0112,0.008 0.0198,0.008 0.0282,0.0111 0.10161,0.0541 0.20992,0.0887 0.34239,0.0887 h 20.21368 c 0.12133,0 0.22996,-0.0344 0.32747,-0.0887 0.0308,-0.0111 0.0618,-0.0305 0.0815,-0.0502 0.0776,-0.0541 0.13938,-0.11519 0.18622,-0.188 0.0226,-0.0168 0.043,-0.0223 0.0508,-0.0425 l 9.45587,-16.19804 z m -69.457855,16.56707 -19.346702,-33.13409 9.245843,-15.83297 19.346694,33.13803 z m 60.211975,0.738 H 94.434795 l 9.245865,-15.82902 H 162.5977 Z M 43.901638,142.33984 73.361147,91.896783 H 112.06352 L 102.8137,107.72972 H 83.038986 c -0.01975,0 -0.03076,0.003 -0.03894,0.009 -0.04289,0 -0.06969,0.002 -0.101578,0.0111 -0.03894,0.002 -0.06969,0.0168 -0.108346,0.0279 -0.03076,0.0111 -0.05079,0.0223 -0.08154,0.0383 -0.01975,0.002 -0.02821,0.002 -0.05079,0.0111 -0.01128,0.008 -0.01975,0.0223 -0.02821,0.0316 -0.03075,0.014 -0.05079,0.0385 -0.08154,0.0572 -0.02821,0.0223 -0.04684,0.0464 -0.07053,0.0728 -0.01975,0.0279 -0.03894,0.0502 -0.05784,0.0778 -0.01129,0.0111 -0.01975,0.0196 -0.03076,0.0343 l -10.113811,17.30512 c -0.0099,0.0279 -0.0099,0.0572 -0.01891,0.0885 -0.02681,0.0452 -0.03882,0.0914 -0.05076,0.14169 -0.0099,0.0464 -0.0099,0.0926 -0.0099,0.13864 0,0.0464 0,0.0915 0.0099,0.13779 0.01185,0.0502 0.02398,0.0965 0.05076,0.14254 0.01185,0.0305 0.01185,0.0611 0.01891,0.0887 l 9.467826,16.19801 z M 62.820346,75.329731 72.070176,91.158773 42.606682,141.60184 33.36083,125.77282 Z m 20.21864,-0.73801 H 102.8137 l 9.24982,15.829012 H 73.361147 L 64.115304,74.591721 Z m 20.206684,-33.87604 29.45953,50.443092 -19.34674,33.138007 -9.24981,-15.82901 9.8948,-16.939987 c 0.0112,-0.0168 0.0112,-0.0279 0.0112,-0.0424 0.0226,-0.0304 0.0308,-0.058 0.0429,-0.0926 0.0112,-0.0304 0.0198,-0.0611 0.0282,-0.0953 0,-0.0354 0.0112,-0.0619 0.0112,-0.0965 0,-0.0168 0.0112,-0.0279 0.0112,-0.0425 0,-0.0168 -0.0112,-0.0305 -0.0112,-0.0463 0,-0.0305 -0.0112,-0.0611 -0.0112,-0.0926 -0.0112,-0.0343 -0.0198,-0.065 -0.0282,-0.0993 -0.0112,-0.0316 -0.0198,-0.0619 -0.0429,-0.0887 0,-0.0168 0,-0.0304 -0.0112,-0.0425 L 103.89066,73.484076 c -0.0112,-0.02789 -0.0388,-0.04631 -0.0579,-0.06889 -0.0319,-0.03849 -0.0626,-0.07671 -0.10161,-0.112132 -0.0388,-0.03432 -0.0696,-0.05299 -0.12048,-0.08061 -0.0388,-0.02231 -0.0776,-0.0424 -0.11652,-0.05719 -0.0508,-0.01953 -0.10162,-0.02789 -0.15237,-0.03152 -0.0388,-0.0028 -0.0579,-0.01953 -0.0964,-0.01953 H 84.333649 Z m 29.89946,84.319109 h -18.49567 l 19.35068,-33.138007 h 18.49169 z M 123.03232,39.977664 152.49183,90.420733 H 134.00014 L 104.53663,39.977664 Z M 31.778215,125.91059 c 0.0099,0.0502 0.02681,0.0966 0.05076,0.14253 0.0099,0.0305 0.0099,0.0611 0.02681,0.0887 l 10.104843,17.30508 c 0.0099,0.005 0.02003,0.0111 0.02793,0.0223 0.01891,0.0305 0.04281,0.058 0.06171,0.0846 0.03882,0.0385 0.07765,0.0689 0.116442,0.10046 0.02398,0.0196 0.0428,0.0452 0.07068,0.0611 0.01101,0.008 0.03086,0.002 0.04281,0.0111 0.09655,0.0502 0.206052,0.0846 0.326475,0.0887 H 82.60004 l 9.894815,16.93606 c 0.0113,0.0111 0.0198,0.014 0.0282,0.0279 0.0226,0.0279 0.0429,0.058 0.0626,0.0846 0.0389,0.0385 0.0776,0.0689 0.12047,0.0993 0.0198,0.0196 0.0389,0.0425 0.0657,0.0619 0.0113,0.003 0.0226,0.003 0.0429,0.0111 0.0976,0.0491 0.20597,0.0846 0.32648,0.0846 h 60.639005 c 0.12837,0 0.23784,-0.0354 0.3384,-0.0846 0.0283,-0.0168 0.0509,-0.0354 0.0776,-0.0541 0.0706,-0.0503 0.14023,-0.1113 0.19102,-0.18801 0.0112,-0.0167 0.0308,-0.0223 0.0389,-0.0423 l 10.1128,-17.30506 c 0.0112,-0.0168 0.0112,-0.0315 0.0112,-0.0425 0.0198,-0.0316 0.0283,-0.0619 0.0389,-0.0887 0.0112,-0.0344 0.0198,-0.0658 0.0308,-0.10045 0,-0.0344 0.0112,-0.0611 0.0112,-0.0953 0,-0.0168 0.0112,-0.0279 0.0112,-0.0425 0,-0.0196 -0.0112,-0.0316 -0.0112,-0.0464 0,-0.0315 -0.0112,-0.0619 -0.0112,-0.0965 -0.0112,-0.0305 -0.0226,-0.0611 -0.0308,-0.0965 -0.0112,-0.0305 -0.0198,-0.0611 -0.0389,-0.0876 0,-0.0168 0,-0.0316 -0.0112,-0.0425 l -19.9966,-34.24119 9.88387,-16.939977 c 0.0112,-0.0168 0.0112,-0.0279 0.0198,-0.0424 0.0112,-0.0305 0.0198,-0.058 0.0389,-0.0926 0.0112,-0.0304 0.0226,-0.0611 0.0226,-0.0953 0.0112,-0.0354 0.0112,-0.0619 0.0198,-0.0965 0,-0.0168 0,-0.0279 0,-0.0425 0,-0.0168 0,-0.0304 0,-0.0463 -0.0112,-0.0305 -0.0112,-0.0611 -0.0198,-0.0926 0,-0.0343 -0.0112,-0.065 -0.0226,-0.0993 -0.0198,-0.0316 -0.0282,-0.0619 -0.0389,-0.0887 -0.0112,-0.0168 -0.0112,-0.0304 -0.0198,-0.0425 L 124.10538,38.870638 c -0.0112,-0.02651 -0.0389,-0.04625 -0.0587,-0.06889 -0.0308,-0.03838 -0.0579,-0.07676 -0.10048,-0.111184 -0.0389,-0.03543 -0.0787,-0.05805 -0.11738,-0.0807 -0.0428,-0.02371 -0.0815,-0.04231 -0.12047,-0.05805 -0.0497,-0.0198 -0.10859,-0.02651 -0.15941,-0.03051 -0.0308,-0.0039 -0.0579,-0.0198 -0.0895,-0.0198 h -20.21362 c -0.0112,0 -0.0226,0.0078 -0.043,0.0078 -0.0282,0.0039 -0.0587,0.0078 -0.0976,0.01562 -0.0308,0.0039 -0.0618,0.01089 -0.10049,0.0265 -0.032,0.01171 -0.0587,0.0198 -0.0897,0.03445 -0.0112,0.0078 -0.0319,0.0078 -0.0388,0.01562 -0.0112,0.0078 -0.0198,0.01869 -0.032,0.0265 -0.0308,0.0198 -0.0579,0.03838 -0.0776,0.06201 -0.0308,0.02259 -0.0508,0.04527 -0.0696,0.07283 -0.0308,0.0226 -0.0508,0.04625 -0.0626,0.07283 -0.0112,0.01562 -0.0282,0.02259 -0.0282,0.03445 l -19.996686,34.24503 h -19.79065 c -0.01891,0 -0.02681,0.0083 -0.03882,0.0083 -0.03882,0.0028 -0.06967,0.0083 -0.09655,0.01395 -0.0428,0.0028 -0.07068,0.01116 -0.101511,0.02789 -0.03086,0.0083 -0.05773,0.01953 -0.08959,0.0343 -0.01891,0.0083 -0.03086,0.0083 -0.03882,0.01673 -0.01891,0.0056 -0.03086,0.01953 -0.0428,0.02789 -0.02681,0.01953 -0.04678,0.03849 -0.07765,0.06108 -0.01891,0.02231 -0.05076,0.04631 -0.06967,0.07392 -0.02003,0.02231 -0.03882,0.0452 -0.05872,0.0728 -0.01101,0.01395 -0.01891,0.01953 -0.03087,0.03432 L 31.854415,125.40552 c -0.01891,0.0279 -0.01891,0.0572 -0.02681,0.0884 -0.02398,0.0452 -0.04281,0.0915 -0.05076,0.1417 -0.01185,0.0464 -0.01185,0.0926 -0.01185,0.13863 0,0.0464 0,0.0915 0.01185,0.13779"
       id="path985" />
    <path
       style="fill:#7256d5;stroke:#7256d5;stroke-width:3.09797;stroke-linecap:square;stroke-miterlimit:1;paint-order:fill markers stroke"
       d="M 437.91154,224.38525 C 423.90629,200.3791 399.35209,158.32576 383.34667,130.93339 l -29.10078,-49.804319 32.82076,0.214153 32.82076,0.214153 53.63311,91.803283 c 29.49821,50.4918 53.99143,92.44877 54.42939,93.2377 0.75245,1.35545 -1.00325,1.43443 -31.88898,1.43443 h -32.68528 z"
       id="path1797"
       transform="matrix(0.26458333,0,0,0.26458333,11.71653,19.039312)" />
    <path
       style="fill:#7256d5;stroke:#7256d5;stroke-width:3.09797;stroke-linecap:square;stroke-miterlimit:1;paint-order:fill markers stroke"
       d="m 392.62295,398.75729 c 0,-0.24303 15.9412,-27.72677 35.42489,-61.07499 l 35.42489,-60.63312 h 32.62894 32.62895 l -1.21263,2.2541 c -0.66695,1.23975 -16.64144,28.62705 -35.49888,60.86065 l -34.28623,58.60656 -32.55497,0.21432 c -17.90523,0.11789 -32.55496,0.0155 -32.55496,-0.22752 z"
       id="path1836"
       transform="matrix(0.26458333,0,0,0.26458333,11.71653,19.039312)" />
    <path
       style="fill:#7256d5;stroke:#7256d5;stroke-width:3.09797;stroke-linecap:square;stroke-miterlimit:1;paint-order:fill markers stroke"
       d="m 316.53005,528.83028 c 0.15028,-0.37286 7.41403,-12.91384 16.14168,-27.86886 l 15.86846,-27.19093 h 108.99493 c 59.94722,0 108.87199,0.30833 108.72171,0.68517 -0.15027,0.37685 -7.43329,12.91783 -16.18448,27.86886 L 534.1611,529.5082 H 425.20897 c -59.92368,0 -108.82919,-0.30507 -108.67892,-0.67792 z"
       id="path1875"
       transform="matrix(0.26458333,0,0,0.26458333,11.71653,19.039312)" />
    <path
       style="fill:#7256d5;stroke:#7256d5;stroke-width:3.09797;stroke-linecap:square;stroke-miterlimit:1;paint-order:fill markers stroke"
       d="M 272.25525,463.98609 236.86816,403.396 252.94988,375.87833 c 8.84495,-15.13472 16.32871,-27.51767 16.63059,-27.51767 0.38782,0 66.88547,113.29652 70.38219,119.91488 0.27728,0.52481 -27.76675,49.61424 -31.34821,54.87321 -0.83238,1.22225 -6.05857,-7.28165 -36.3592,-59.16266 z"
       id="path1914"
       transform="matrix(0.26458333,0,0,0.26458333,11.71653,19.039312)" />
    <path
       style="fill:#7256d5;stroke:#7256d5;stroke-width:3.09797;stroke-linecap:square;stroke-miterlimit:1;paint-order:fill markers stroke"
       d="M 100.52429,431.57682 C 90.237651,413.94925 84.526866,403.37446 84.843719,402.54076 86.517121,398.13772 192.9906,217.2529 193.56867,217.83097 c 0.38866,0.38865 7.81049,12.86906 16.49299,27.73425 l 15.78634,27.02761 -53.84797,92.18719 c -29.61637,50.70296 -54.17395,92.71243 -54.57239,93.3544 -0.52441,0.84492 -5.19154,-6.48781 -16.90335,-26.5576 z"
       id="path1953"
       transform="matrix(0.26458333,0,0,0.26458333,11.71653,19.039312)" />
    <path
       style="fill:#7256d5;stroke:#7256d5;stroke-width:3.09797;stroke-linecap:square;stroke-miterlimit:1;paint-order:fill markers stroke"
       d="m 218.03279,240.44102 c -8.79099,-15.14173 -16.10656,-27.85334 -16.25683,-28.24802 -0.15496,-0.40696 30.35919,-0.7126 70.4918,-0.70607 l 70.76503,0.0115 16.18852,27.79934 c 8.90369,15.28964 16.18853,28.00987 16.18853,28.26717 0,0.2573 -31.81353,0.45403 -70.69673,0.43716 l -70.69672,-0.0307 z"
       id="path1992"
       transform="matrix(0.26458333,0,0,0.26458333,11.71653,19.039312)" />
  </g>
</svg>
